<svg xmlns="http://www.w3.org/2000/svg" xmlns:xlink="http://www.w3.org/1999/xlink" width="400" zoomAndPan="magnify" viewBox="0 0 300 299.999988" height="400" preserveAspectRatio="xMidYMid meet" version="1.0"><defs><clipPath id="40d737e3c8"><path d="M 0 288 L 299.25 288 L 299.25 300 L 0 300 Z M 0 288 " clip-rule="nonzero"/></clipPath></defs><path fill="#d4def9" d="M 285.566406 182.042969 C 285.03125 182.042969 284.574219 181.585938 284.574219 181.050781 L 284.574219 173.355469 C 284.574219 172.820312 285.03125 172.363281 285.566406 172.363281 C 286.097656 172.363281 286.558594 172.820312 286.558594 173.355469 L 286.558594 181.050781 C 286.558594 181.660156 286.097656 182.042969 285.566406 182.042969 Z M 285.566406 182.042969 " fill-opacity="1" fill-rule="nonzero"/><path fill="#d4def9" d="M 289.453125 178.230469 L 281.757812 178.230469 C 281.222656 178.230469 280.765625 177.773438 280.765625 177.242188 C 280.765625 176.707031 281.222656 176.25 281.757812 176.25 L 289.453125 176.25 C 289.984375 176.25 290.441406 176.707031 290.441406 177.242188 C 290.441406 177.773438 289.984375 178.230469 289.453125 178.230469 Z M 289.453125 178.230469 " fill-opacity="1" fill-rule="nonzero"/><g clip-path="url(#40d737e3c8)"><path fill="#d4def9" d="M 299.207031 294.132812 C 299.207031 294.230469 299.144531 294.324219 299.027344 294.421875 C 298.90625 294.515625 298.726562 294.613281 298.484375 294.707031 C 298.246094 294.804688 297.945312 294.898438 297.585938 294.992188 C 297.226562 295.089844 296.808594 295.183594 296.332031 295.277344 C 295.855469 295.371094 295.316406 295.464844 294.722656 295.558594 C 294.128906 295.652344 293.476562 295.742188 292.765625 295.835938 C 292.054688 295.925781 291.285156 296.019531 290.460938 296.109375 C 289.636719 296.199219 288.757812 296.289062 287.820312 296.378906 C 286.882812 296.464844 285.890625 296.554688 284.84375 296.640625 C 283.796875 296.726562 282.699219 296.8125 281.542969 296.898438 C 280.390625 296.984375 279.183594 297.066406 277.925781 297.148438 C 276.667969 297.230469 275.355469 297.3125 273.996094 297.390625 C 272.636719 297.472656 271.226562 297.550781 269.769531 297.628906 C 268.3125 297.703125 266.804688 297.78125 265.253906 297.855469 C 263.699219 297.929688 262.101562 298 260.457031 298.074219 C 258.8125 298.144531 257.125 298.214844 255.394531 298.28125 C 253.664062 298.347656 251.890625 298.414062 250.078125 298.480469 C 248.261719 298.542969 246.410156 298.605469 244.519531 298.667969 C 242.625 298.730469 240.695312 298.789062 238.730469 298.84375 C 236.765625 298.902344 234.761719 298.957031 232.726562 299.011719 C 230.691406 299.0625 228.625 299.117188 226.523438 299.164062 C 224.425781 299.214844 222.296875 299.261719 220.136719 299.308594 C 217.976562 299.351562 215.792969 299.394531 213.578125 299.4375 C 211.367188 299.476562 209.128906 299.515625 206.867188 299.554688 C 204.605469 299.589844 202.320312 299.625 200.015625 299.65625 C 197.710938 299.6875 195.386719 299.71875 193.046875 299.746094 C 190.703125 299.773438 188.34375 299.800781 185.96875 299.824219 C 183.59375 299.847656 181.207031 299.867188 178.808594 299.886719 C 176.40625 299.90625 173.996094 299.921875 171.574219 299.9375 C 169.152344 299.949219 166.722656 299.960938 164.285156 299.972656 C 161.851562 299.980469 159.410156 299.988281 156.964844 299.992188 C 154.519531 299.996094 152.074219 300 149.625 300 C 147.175781 300 144.730469 299.996094 142.285156 299.992188 C 139.839844 299.988281 137.398438 299.980469 134.964844 299.972656 C 132.527344 299.960938 130.097656 299.949219 127.675781 299.9375 C 125.253906 299.921875 122.84375 299.90625 120.441406 299.886719 C 118.042969 299.867188 115.65625 299.847656 113.28125 299.824219 C 110.90625 299.800781 108.546875 299.773438 106.203125 299.746094 C 103.863281 299.71875 101.539062 299.6875 99.234375 299.65625 C 96.929688 299.625 94.644531 299.589844 92.382812 299.554688 C 90.121094 299.515625 87.882812 299.476562 85.671875 299.4375 C 83.457031 299.394531 81.273438 299.351562 79.113281 299.308594 C 76.953125 299.261719 74.824219 299.214844 72.726562 299.164062 C 70.625 299.117188 68.558594 299.0625 66.523438 299.011719 C 64.488281 298.957031 62.484375 298.902344 60.519531 298.84375 C 58.554688 298.789062 56.625 298.730469 54.730469 298.667969 C 52.839844 298.605469 50.988281 298.542969 49.171875 298.480469 C 47.359375 298.414062 45.585938 298.347656 43.855469 298.28125 C 42.125 298.214844 40.4375 298.144531 38.792969 298.074219 C 37.148438 298 35.550781 297.929688 33.996094 297.855469 C 32.445312 297.78125 30.9375 297.703125 29.480469 297.628906 C 28.023438 297.550781 26.613281 297.472656 25.253906 297.390625 C 23.894531 297.3125 22.582031 297.230469 21.324219 297.148438 C 20.066406 297.066406 18.859375 296.984375 17.707031 296.898438 C 16.550781 296.8125 15.453125 296.726562 14.40625 296.640625 C 13.359375 296.554688 12.367188 296.464844 11.429688 296.378906 C 10.492188 296.289062 9.613281 296.199219 8.789062 296.109375 C 7.964844 296.019531 7.195312 295.925781 6.484375 295.835938 C 5.773438 295.742188 5.121094 295.652344 4.527344 295.558594 C 3.933594 295.464844 3.394531 295.371094 2.917969 295.277344 C 2.441406 295.183594 2.023438 295.089844 1.664062 294.992188 C 1.304688 294.898438 1.003906 294.804688 0.765625 294.707031 C 0.523438 294.613281 0.34375 294.515625 0.222656 294.421875 C 0.105469 294.324219 0.0429688 294.230469 0.0429688 294.132812 C 0.0429688 294.035156 0.105469 293.941406 0.222656 293.84375 C 0.34375 293.75 0.523438 293.652344 0.765625 293.558594 C 1.003906 293.460938 1.304688 293.367188 1.664062 293.273438 C 2.023438 293.175781 2.441406 293.082031 2.917969 292.988281 C 3.394531 292.894531 3.933594 292.800781 4.527344 292.707031 C 5.121094 292.613281 5.773438 292.519531 6.484375 292.429688 C 7.195312 292.335938 7.964844 292.246094 8.789062 292.15625 C 9.613281 292.066406 10.492188 291.976562 11.429688 291.886719 C 12.367188 291.796875 13.359375 291.710938 14.40625 291.625 C 15.453125 291.535156 16.550781 291.453125 17.707031 291.367188 C 18.859375 291.28125 20.066406 291.199219 21.324219 291.117188 C 22.582031 291.035156 23.894531 290.953125 25.253906 290.871094 C 26.613281 290.792969 28.023438 290.714844 29.480469 290.636719 C 30.9375 290.558594 32.445312 290.484375 33.996094 290.410156 C 35.550781 290.335938 37.148438 290.261719 38.792969 290.191406 C 40.4375 290.121094 42.125 290.050781 43.855469 289.984375 C 45.585938 289.914062 47.359375 289.847656 49.171875 289.785156 C 50.988281 289.71875 52.839844 289.65625 54.730469 289.597656 C 56.625 289.535156 58.554688 289.476562 60.519531 289.417969 C 62.484375 289.363281 64.488281 289.308594 66.523438 289.253906 C 68.558594 289.199219 70.625 289.148438 72.726562 289.101562 C 74.824219 289.050781 76.953125 289.003906 79.113281 288.957031 C 81.273438 288.914062 83.457031 288.871094 85.671875 288.828125 C 87.882812 288.789062 90.121094 288.75 92.382812 288.710938 C 94.644531 288.675781 96.929688 288.640625 99.234375 288.609375 C 101.539062 288.574219 103.863281 288.546875 106.203125 288.519531 C 108.546875 288.488281 110.90625 288.464844 113.28125 288.441406 C 115.65625 288.417969 118.042969 288.398438 120.441406 288.378906 C 122.84375 288.359375 125.253906 288.34375 127.675781 288.328125 C 130.097656 288.316406 132.527344 288.304688 134.964844 288.292969 C 137.398438 288.285156 139.839844 288.277344 142.285156 288.273438 C 144.730469 288.265625 147.175781 288.265625 149.625 288.265625 C 152.074219 288.265625 154.519531 288.265625 156.964844 288.273438 C 159.410156 288.277344 161.851562 288.285156 164.285156 288.292969 C 166.722656 288.304688 169.152344 288.316406 171.574219 288.328125 C 173.996094 288.34375 176.40625 288.359375 178.808594 288.378906 C 181.207031 288.398438 183.59375 288.417969 185.96875 288.441406 C 188.34375 288.464844 190.703125 288.488281 193.046875 288.519531 C 195.386719 288.546875 197.710938 288.574219 200.015625 288.609375 C 202.320312 288.640625 204.605469 288.675781 206.867188 288.710938 C 209.128906 288.75 211.367188 288.789062 213.578125 288.828125 C 215.792969 288.871094 217.976562 288.914062 220.136719 288.957031 C 222.296875 289.003906 224.425781 289.050781 226.523438 289.101562 C 228.625 289.148438 230.691406 289.199219 232.726562 289.253906 C 234.761719 289.308594 236.765625 289.363281 238.730469 289.417969 C 240.695312 289.476562 242.625 289.535156 244.519531 289.597656 C 246.410156 289.65625 248.261719 289.71875 250.078125 289.785156 C 251.890625 289.847656 253.664062 289.914062 255.394531 289.984375 C 257.125 290.050781 258.8125 290.121094 260.457031 290.191406 C 262.101562 290.261719 263.699219 290.335938 265.253906 290.410156 C 266.804688 290.484375 268.3125 290.558594 269.769531 290.636719 C 271.226562 290.714844 272.636719 290.792969 273.996094 290.871094 C 275.355469 290.953125 276.667969 291.035156 277.925781 291.117188 C 279.183594 291.199219 280.390625 291.28125 281.542969 291.367188 C 282.699219 291.453125 283.796875 291.535156 284.84375 291.625 C 285.890625 291.710938 286.882812 291.796875 287.820312 291.886719 C 288.757812 291.976562 289.636719 292.066406 290.460938 292.15625 C 291.285156 292.246094 292.054688 292.335938 292.765625 292.429688 C 293.476562 292.519531 294.128906 292.613281 294.722656 292.707031 C 295.316406 292.800781 295.855469 292.894531 296.332031 292.988281 C 296.808594 293.082031 297.226562 293.175781 297.585938 293.273438 C 297.945312 293.367188 298.246094 293.460938 298.484375 293.558594 C 298.726562 293.652344 298.90625 293.75 299.027344 293.84375 C 299.144531 293.941406 299.207031 294.035156 299.207031 294.132812 Z M 299.207031 294.132812 " fill-opacity="1" fill-rule="nonzero"/></g><path fill="#263156" d="M 268.421875 129.007812 L 265.601562 129.007812 C 265.066406 126.796875 264.230469 124.738281 263.085938 122.835938 L 265.144531 120.777344 C 265.90625 120.015625 265.90625 118.871094 265.144531 118.109375 L 260.574219 113.539062 C 259.808594 112.777344 258.667969 112.777344 257.90625 113.539062 L 255.925781 115.519531 C 254.019531 114.375 251.960938 113.460938 249.753906 112.851562 L 249.753906 109.878906 C 249.753906 108.8125 248.914062 107.976562 247.847656 107.976562 L 241.371094 107.976562 C 240.304688 107.976562 239.464844 108.8125 239.464844 109.878906 L 239.464844 112.699219 C 237.253906 113.234375 235.199219 114.070312 233.292969 115.214844 L 231.234375 113.15625 C 230.472656 112.394531 229.332031 112.394531 228.566406 113.15625 L 223.996094 117.730469 C 223.234375 118.492188 223.234375 119.632812 223.996094 120.394531 L 225.976562 122.378906 C 224.757812 124.28125 223.921875 126.339844 223.308594 128.550781 L 220.339844 128.550781 C 219.273438 128.550781 218.433594 129.386719 218.433594 130.453125 L 218.433594 136.933594 C 218.433594 138 219.273438 138.835938 220.339844 138.835938 L 223.15625 138.835938 C 223.617188 141.046875 224.53125 143.105469 225.671875 145.007812 L 223.539062 147.140625 C 222.777344 147.90625 222.777344 149.046875 223.539062 149.808594 L 228.109375 154.382812 C 228.875 155.144531 230.015625 155.144531 230.777344 154.382812 L 232.757812 152.398438 C 234.664062 153.542969 236.722656 154.457031 238.929688 155.066406 L 238.929688 158.039062 C 238.929688 159.105469 239.769531 159.945312 240.835938 159.945312 L 247.3125 159.945312 C 248.378906 159.945312 249.21875 159.105469 249.21875 158.039062 L 249.21875 155.21875 C 251.429688 154.6875 253.484375 153.847656 255.390625 152.707031 L 257.449219 154.761719 C 258.210938 155.523438 259.351562 155.523438 260.117188 154.761719 L 264.6875 150.191406 C 265.449219 149.429688 265.449219 148.285156 264.6875 147.523438 L 262.707031 145.542969 C 263.925781 143.636719 264.761719 141.578125 265.375 139.371094 L 268.34375 139.371094 C 269.410156 139.371094 270.25 138.53125 270.25 137.464844 L 270.25 130.988281 C 270.324219 129.921875 269.410156 129.007812 268.421875 129.007812 Z M 244.339844 146 C 237.710938 146 232.300781 140.589844 232.300781 133.960938 C 232.300781 127.027344 238.167969 121.464844 245.179688 121.921875 C 251.199219 122.300781 256.078125 127.179688 256.457031 133.199219 C 256.839844 140.207031 251.277344 146 244.339844 146 Z M 244.339844 146 " fill-opacity="1" fill-rule="nonzero"/><path fill="#d4def9" d="M 247.390625 160.25 L 240.914062 160.25 C 239.695312 160.25 238.625 159.257812 238.625 157.964844 L 238.625 155.296875 C 236.644531 154.761719 234.664062 153.925781 232.910156 152.859375 L 231.082031 154.6875 C 230.167969 155.601562 228.722656 155.601562 227.882812 154.6875 L 223.308594 150.113281 C 222.851562 149.65625 222.625 149.125 222.625 148.515625 C 222.625 147.90625 222.851562 147.371094 223.308594 146.914062 L 225.214844 145.007812 C 224.148438 143.179688 223.386719 141.273438 222.929688 139.21875 L 220.414062 139.21875 C 219.195312 139.21875 218.128906 138.226562 218.128906 136.929688 L 218.128906 130.453125 C 218.128906 129.234375 219.121094 128.167969 220.414062 128.167969 L 223.082031 128.167969 C 223.617188 126.109375 224.453125 124.207031 225.519531 122.453125 L 223.691406 120.625 C 222.777344 119.710938 222.777344 118.261719 223.691406 117.425781 L 228.261719 112.851562 C 229.179688 111.9375 230.625 111.9375 231.464844 112.851562 L 233.367188 114.757812 C 235.199219 113.691406 237.101562 112.929688 239.160156 112.472656 L 239.160156 109.957031 C 239.160156 108.738281 240.152344 107.671875 241.445312 107.671875 L 247.921875 107.671875 C 249.140625 107.671875 250.210938 108.660156 250.210938 109.957031 L 250.210938 112.625 C 252.191406 113.15625 254.171875 113.996094 255.925781 115.0625 L 257.753906 113.234375 C 258.589844 112.394531 260.117188 112.394531 260.953125 113.234375 L 265.527344 117.804688 C 266.441406 118.71875 266.441406 120.167969 265.527344 121.003906 L 263.621094 122.910156 C 264.6875 124.738281 265.449219 126.644531 265.90625 128.703125 L 268.421875 128.703125 C 269.640625 128.703125 270.707031 129.691406 270.707031 130.988281 L 270.707031 137.464844 C 270.707031 138.683594 269.714844 139.75 268.421875 139.75 L 265.753906 139.75 C 265.21875 141.730469 264.382812 143.714844 263.316406 145.464844 L 265.144531 147.292969 C 265.601562 147.753906 265.832031 148.285156 265.832031 148.894531 C 265.832031 149.503906 265.601562 150.039062 265.144531 150.496094 L 260.574219 155.066406 C 259.65625 155.980469 258.210938 155.980469 257.371094 155.066406 L 255.46875 153.164062 C 253.636719 154.230469 251.734375 154.992188 249.675781 155.449219 L 249.675781 157.960938 C 249.597656 159.257812 248.609375 160.25 247.390625 160.25 Z M 239.007812 154.609375 L 239.3125 154.609375 L 239.3125 157.964844 C 239.3125 158.800781 240 159.488281 240.835938 159.488281 L 247.3125 159.488281 C 248.152344 159.488281 248.835938 158.800781 248.835938 157.964844 L 248.835938 154.761719 L 249.140625 154.761719 C 251.277344 154.304688 253.332031 153.46875 255.164062 152.324219 L 255.390625 152.171875 L 255.621094 152.398438 L 257.675781 154.457031 C 258.285156 155.066406 259.199219 155.066406 259.808594 154.457031 L 264.382812 149.886719 C 264.6875 149.582031 264.839844 149.199219 264.839844 148.820312 C 264.839844 148.4375 264.6875 148.058594 264.382812 147.753906 L 262.097656 145.464844 L 262.324219 145.238281 C 263.46875 143.332031 264.382812 141.351562 264.914062 139.21875 L 264.992188 138.914062 L 268.269531 138.914062 C 269.105469 138.914062 269.792969 138.226562 269.792969 137.390625 L 269.792969 130.910156 C 269.792969 130.074219 269.105469 129.386719 268.269531 129.386719 L 265.144531 129.386719 L 265.066406 129.082031 C 264.609375 126.949219 263.773438 124.890625 262.628906 122.988281 L 262.476562 122.757812 L 264.761719 120.472656 C 265.371094 119.863281 265.371094 118.949219 264.761719 118.339844 L 260.191406 113.765625 C 259.582031 113.15625 258.589844 113.15625 258.058594 113.765625 L 255.847656 115.976562 L 255.621094 115.824219 C 253.789062 114.679688 251.734375 113.765625 249.597656 113.234375 L 249.292969 113.15625 L 249.292969 109.878906 C 249.292969 109.042969 248.609375 108.355469 247.769531 108.355469 L 241.292969 108.355469 C 240.457031 108.355469 239.769531 109.042969 239.769531 109.878906 L 239.769531 113.003906 L 239.464844 113.082031 C 237.332031 113.539062 235.273438 114.375 233.367188 115.519531 L 233.140625 115.671875 L 230.855469 113.386719 C 230.246094 112.777344 229.332031 112.777344 228.722656 113.386719 L 224.148438 117.957031 C 223.539062 118.566406 223.539062 119.480469 224.148438 120.089844 L 226.359375 122.300781 L 226.207031 122.53125 C 225.0625 124.359375 224.148438 126.417969 223.617188 128.550781 L 223.539062 128.855469 L 220.261719 128.855469 C 219.425781 128.855469 218.738281 129.539062 218.738281 130.378906 L 218.738281 136.855469 C 218.738281 137.695312 219.425781 138.378906 220.261719 138.378906 L 223.386719 138.378906 L 223.464844 138.683594 C 223.921875 140.816406 224.757812 142.875 225.902344 144.78125 L 226.054688 145.007812 L 223.769531 147.292969 C 223.464844 147.601562 223.308594 147.980469 223.308594 148.363281 C 223.308594 148.742188 223.464844 149.125 223.769531 149.429688 L 228.339844 154 C 228.949219 154.609375 229.863281 154.609375 230.472656 154 L 232.683594 151.789062 L 232.910156 151.941406 C 234.894531 153.238281 236.875 154.078125 239.007812 154.609375 Z M 244.339844 146.378906 C 237.484375 146.378906 231.921875 140.816406 231.921875 133.960938 C 231.921875 130.53125 233.367188 127.253906 235.882812 124.890625 C 238.398438 122.53125 241.75 121.3125 245.257812 121.539062 C 251.503906 121.921875 256.457031 126.949219 256.839844 133.199219 C 257.066406 136.703125 255.847656 139.980469 253.484375 142.496094 C 251.046875 145.007812 247.847656 146.378906 244.339844 146.378906 Z M 244.339844 122.226562 C 241.371094 122.226562 238.550781 123.367188 236.339844 125.347656 C 233.980469 127.558594 232.605469 130.605469 232.605469 133.882812 C 232.605469 140.359375 237.863281 145.542969 244.265625 145.542969 C 247.542969 145.542969 250.515625 144.246094 252.800781 141.882812 C 255.011719 139.523438 256.152344 136.398438 255.925781 133.121094 C 255.542969 127.253906 250.894531 122.53125 245.027344 122.148438 C 244.875 122.226562 244.570312 122.226562 244.339844 122.226562 Z M 244.339844 122.226562 " fill-opacity="1" fill-rule="nonzero"/><path fill="#263156" d="M 285.03125 95.175781 L 283.355469 95.175781 C 283.050781 93.878906 282.519531 92.660156 281.910156 91.515625 L 283.128906 90.296875 C 283.585938 89.839844 283.585938 89.152344 283.128906 88.695312 L 280.382812 85.953125 C 279.925781 85.496094 279.242188 85.496094 278.785156 85.953125 L 277.566406 87.171875 C 276.421875 86.488281 275.203125 85.953125 273.90625 85.648438 L 273.90625 83.894531 C 273.90625 83.285156 273.375 82.753906 272.765625 82.753906 L 268.953125 82.753906 C 268.34375 82.753906 267.8125 83.285156 267.8125 83.894531 L 267.8125 85.574219 C 266.515625 85.878906 265.296875 86.410156 264.152344 87.019531 L 262.933594 85.800781 C 262.476562 85.34375 261.792969 85.34375 261.335938 85.800781 L 258.589844 88.542969 C 258.132812 89 258.132812 89.6875 258.589844 90.144531 L 259.808594 91.363281 C 259.125 92.507812 258.589844 93.726562 258.285156 95.023438 L 256.535156 95.023438 C 255.925781 95.023438 255.390625 95.554688 255.390625 96.164062 L 255.390625 99.972656 C 255.390625 100.585938 255.925781 101.117188 256.535156 101.117188 L 258.210938 101.117188 C 258.515625 102.414062 258.972656 103.632812 259.65625 104.773438 L 258.4375 105.996094 C 257.980469 106.453125 257.980469 107.136719 258.4375 107.59375 L 261.183594 110.335938 C 261.640625 110.796875 262.324219 110.796875 262.78125 110.335938 L 264 109.117188 C 265.144531 109.804688 266.363281 110.335938 267.660156 110.644531 L 267.660156 112.394531 C 267.660156 113.003906 268.191406 113.539062 268.800781 113.539062 L 272.613281 113.539062 C 273.222656 113.539062 273.753906 113.003906 273.753906 112.394531 L 273.753906 110.71875 C 275.050781 110.414062 276.269531 109.957031 277.414062 109.269531 L 278.632812 110.492188 C 279.089844 110.949219 279.773438 110.949219 280.230469 110.492188 L 282.976562 107.746094 C 283.433594 107.289062 283.433594 106.605469 282.976562 106.148438 L 281.757812 104.925781 C 282.441406 103.785156 282.976562 102.566406 283.28125 101.269531 L 285.03125 101.269531 C 285.640625 101.269531 286.175781 100.738281 286.175781 100.128906 L 286.175781 96.316406 C 286.097656 95.632812 285.640625 95.175781 285.03125 95.175781 Z M 270.785156 105.15625 C 266.820312 105.15625 263.621094 101.957031 263.621094 97.992188 C 263.621094 93.878906 267.050781 90.601562 271.242188 90.90625 C 274.820312 91.136719 277.640625 94.03125 277.871094 97.613281 C 278.175781 101.726562 274.898438 105.15625 270.785156 105.15625 Z M 270.785156 105.15625 " fill-opacity="1" fill-rule="nonzero"/><path fill="#d4def9" d="M 272.535156 113.765625 L 268.726562 113.765625 C 267.886719 113.765625 267.203125 113.082031 267.203125 112.242188 L 267.203125 110.796875 C 266.058594 110.488281 264.992188 110.03125 264 109.421875 L 263.011719 110.414062 C 262.476562 110.949219 261.488281 110.949219 260.878906 110.414062 L 258.132812 107.671875 C 257.523438 107.0625 257.523438 106.148438 258.132812 105.539062 L 259.199219 104.46875 C 258.589844 103.480469 258.210938 102.335938 257.90625 101.269531 L 256.535156 101.269531 C 255.695312 101.269531 255.011719 100.585938 255.011719 99.746094 L 255.011719 95.9375 C 255.011719 95.097656 255.695312 94.410156 256.535156 94.410156 L 257.980469 94.410156 C 258.285156 93.269531 258.742188 92.203125 259.351562 91.210938 L 258.363281 90.222656 C 257.753906 89.613281 257.753906 88.695312 258.363281 88.085938 L 261.105469 85.34375 C 261.714844 84.734375 262.628906 84.734375 263.238281 85.34375 L 264.304688 86.410156 C 265.296875 85.800781 266.441406 85.421875 267.507812 85.117188 L 267.507812 83.742188 C 267.507812 82.90625 268.191406 82.21875 269.03125 82.21875 L 272.839844 82.21875 C 273.679688 82.21875 274.363281 82.90625 274.363281 83.742188 L 274.363281 85.191406 C 275.507812 85.496094 276.574219 85.953125 277.566406 86.5625 L 278.554688 85.574219 C 279.164062 84.964844 280.078125 84.964844 280.6875 85.574219 L 283.433594 88.316406 C 284.042969 88.925781 284.042969 89.839844 283.433594 90.449219 L 282.367188 91.515625 C 282.976562 92.507812 283.355469 93.648438 283.660156 94.714844 L 285.03125 94.714844 C 285.871094 94.714844 286.558594 95.402344 286.558594 96.242188 L 286.558594 100.050781 C 286.558594 100.890625 285.871094 101.574219 285.03125 101.574219 L 283.585938 101.574219 C 283.28125 102.71875 282.824219 103.785156 282.214844 104.773438 L 283.203125 105.765625 C 283.8125 106.375 283.8125 107.289062 283.203125 107.898438 L 280.460938 110.644531 C 279.851562 111.253906 278.9375 111.253906 278.328125 110.644531 L 277.261719 109.574219 C 276.269531 110.183594 275.203125 110.566406 274.058594 110.871094 L 274.058594 112.242188 C 274.058594 113.082031 273.375 113.765625 272.535156 113.765625 Z M 267.660156 110.109375 L 267.964844 110.261719 L 267.964844 112.242188 C 267.964844 112.625 268.269531 113.003906 268.726562 113.003906 L 272.535156 113.003906 C 272.917969 113.003906 273.296875 112.699219 273.296875 112.242188 L 273.296875 110.261719 L 273.601562 110.183594 C 274.820312 109.878906 276.042969 109.421875 277.183594 108.738281 L 277.414062 108.585938 L 278.859375 110.03125 C 279.164062 110.335938 279.621094 110.335938 279.925781 110.03125 L 282.671875 107.289062 C 282.976562 106.984375 282.976562 106.527344 282.671875 106.222656 L 281.300781 104.851562 L 281.453125 104.621094 C 282.136719 103.554688 282.671875 102.335938 282.976562 101.117188 L 283.050781 100.8125 L 285.109375 100.8125 C 285.488281 100.8125 285.871094 100.507812 285.871094 100.050781 L 285.871094 96.242188 C 285.871094 95.859375 285.566406 95.480469 285.109375 95.480469 L 283.128906 95.480469 L 283.050781 95.175781 C 282.746094 93.953125 282.289062 92.734375 281.605469 91.59375 L 281.453125 91.363281 L 282.898438 89.917969 C 283.203125 89.613281 283.203125 89.152344 282.898438 88.847656 L 280.15625 86.105469 C 279.851562 85.800781 279.394531 85.800781 279.089844 86.105469 L 277.71875 87.476562 L 277.488281 87.324219 C 276.421875 86.640625 275.203125 86.105469 273.984375 85.800781 L 273.679688 85.726562 L 273.679688 83.667969 C 273.679688 83.285156 273.375 82.90625 272.917969 82.90625 L 269.105469 82.90625 C 268.726562 82.90625 268.34375 83.210938 268.34375 83.667969 L 268.34375 85.648438 L 268.039062 85.726562 C 266.820312 86.03125 265.601562 86.488281 264.457031 87.171875 L 264.230469 87.324219 L 262.78125 85.878906 C 262.476562 85.574219 262.019531 85.574219 261.714844 85.878906 L 258.972656 88.621094 C 258.667969 88.925781 258.667969 89.382812 258.972656 89.6875 L 260.34375 91.058594 L 260.191406 91.289062 C 259.503906 92.355469 258.972656 93.574219 258.667969 94.792969 L 258.589844 95.097656 L 256.535156 95.097656 C 256.152344 95.097656 255.773438 95.402344 255.773438 95.859375 L 255.773438 99.667969 C 255.773438 100.050781 256.078125 100.433594 256.535156 100.433594 L 258.515625 100.433594 L 258.589844 100.738281 C 258.894531 101.957031 259.351562 103.175781 260.039062 104.316406 L 260.191406 104.546875 L 258.742188 105.996094 C 258.4375 106.300781 258.4375 106.757812 258.742188 107.0625 L 261.488281 109.804688 C 261.792969 110.109375 262.25 110.109375 262.554688 109.804688 L 263.925781 108.433594 L 264.152344 108.585938 C 265.296875 109.269531 266.441406 109.804688 267.660156 110.109375 Z M 270.785156 105.539062 C 266.667969 105.539062 263.238281 102.183594 263.238281 97.992188 C 263.238281 95.9375 264.078125 93.953125 265.601562 92.507812 C 267.125 91.058594 269.105469 90.375 271.242188 90.527344 C 274.972656 90.753906 278.023438 93.800781 278.25 97.535156 C 278.402344 99.59375 277.640625 101.652344 276.195312 103.175781 C 274.820312 104.699219 272.839844 105.539062 270.785156 105.539062 Z M 270.785156 91.289062 C 269.03125 91.289062 267.429688 91.898438 266.210938 93.117188 C 264.839844 94.410156 264.078125 96.164062 264.078125 98.070312 C 264.078125 101.804688 267.125 104.851562 270.859375 104.851562 C 272.765625 104.851562 274.515625 104.089844 275.8125 102.71875 C 277.109375 101.347656 277.71875 99.59375 277.640625 97.6875 C 277.414062 94.335938 274.746094 91.59375 271.394531 91.363281 C 271.089844 91.289062 270.9375 91.289062 270.785156 91.289062 Z M 270.785156 91.289062 " fill-opacity="1" fill-rule="nonzero"/><path fill="#d4def9" d="M 99.027344 21.109375 C 99.714844 23.699219 102.382812 25.296875 104.972656 24.613281 C 107.5625 23.925781 109.164062 21.261719 108.476562 18.667969 C 107.792969 16.078125 105.125 14.476562 102.535156 15.164062 C 99.941406 15.851562 98.34375 18.515625 99.027344 21.109375 Z M 99.027344 21.109375 " fill-opacity="1" fill-rule="nonzero"/><path fill="#d4def9" d="M 91.636719 11.203125 C 93.921875 12.574219 96.96875 11.886719 98.34375 9.523438 C 99.714844 7.238281 98.953125 4.191406 96.664062 2.820312 C 94.378906 1.449219 91.332031 2.210938 89.960938 4.496094 C 88.511719 6.859375 89.273438 9.828125 91.636719 11.203125 Z M 91.636719 11.203125 " fill-opacity="1" fill-rule="nonzero"/><path fill="#d4def9" d="M 77.160156 10.058594 C 79.671875 9.066406 80.890625 6.25 79.902344 3.734375 C 78.910156 1.21875 76.09375 0 73.578125 0.992188 C 71.0625 1.980469 69.84375 4.800781 70.835938 7.316406 C 71.824219 9.828125 74.644531 11.050781 77.160156 10.058594 Z M 77.160156 10.058594 " fill-opacity="1" fill-rule="nonzero"/><path fill="#d4def9" d="M 67.40625 20.800781 C 68.167969 18.210938 66.644531 15.46875 64.050781 14.78125 C 61.460938 14.019531 58.792969 15.542969 58.03125 18.136719 C 57.269531 20.726562 58.792969 23.394531 61.386719 24.15625 C 63.976562 24.917969 66.71875 23.394531 67.40625 20.800781 Z M 67.40625 20.800781 " fill-opacity="1" fill-rule="nonzero"/><path fill="#d4def9" d="M 70.070312 35.050781 C 68.472656 32.917969 65.425781 32.460938 63.214844 34.0625 C 61.082031 35.660156 60.625 38.710938 62.222656 40.84375 C 63.824219 42.976562 66.871094 43.433594 69.003906 41.832031 C 71.214844 40.234375 71.671875 37.1875 70.070312 35.050781 Z M 70.070312 35.050781 " fill-opacity="1" fill-rule="nonzero"/><path fill="#d4def9" d="M 83.027344 41.605469 C 80.28125 41.605469 78.148438 43.738281 78.074219 46.40625 C 78.074219 49.074219 80.207031 51.28125 82.875 51.359375 C 85.539062 51.359375 87.75 49.226562 87.828125 46.558594 C 87.828125 43.890625 85.691406 41.679688 83.027344 41.605469 Z M 83.027344 41.605469 " fill-opacity="1" fill-rule="nonzero"/><path fill="#d4def9" d="M 96.054688 35.355469 C 94.378906 37.492188 94.761719 40.539062 96.894531 42.214844 C 99.027344 43.890625 102.074219 43.511719 103.753906 41.375 C 105.429688 39.242188 105.046875 36.195312 102.914062 34.519531 C 100.78125 32.84375 97.734375 33.222656 96.054688 35.355469 Z M 96.054688 35.355469 " fill-opacity="1" fill-rule="nonzero"/><path fill="#d4def9" d="M 250.285156 251.992188 C 250.132812 252.296875 249.980469 252.449219 249.753906 252.527344 C 249.675781 252.527344 249.675781 252.527344 249.597656 252.527344 C 244.113281 252.375 234.4375 224.105469 220.492188 225.703125 C 220.339844 225.703125 220.1875 225.703125 220.035156 225.78125 C 220.035156 225.78125 233.292969 219.457031 240 222.960938 C 250.285156 228.21875 251.960938 248.566406 250.285156 251.992188 Z M 250.285156 251.992188 " fill-opacity="1" fill-rule="nonzero"/><path fill="#d4def9" d="M 250.285156 251.992188 C 250.132812 252.296875 249.980469 252.449219 249.753906 252.527344 C 249.675781 252.527344 249.675781 252.527344 249.597656 252.527344 C 244.113281 252.375 234.4375 224.105469 220.492188 225.703125 C 220.492188 225.703125 235.882812 219.609375 243.121094 232.105469 C 247.695312 239.953125 249.523438 247.5 250.285156 251.992188 Z M 250.285156 251.992188 " fill-opacity="1" fill-rule="nonzero"/><path fill="#d4def9" d="M 250.589844 269.597656 C 250.363281 269.597656 250.210938 269.445312 250.285156 269.214844 C 250.285156 268.757812 252.722656 227.230469 230.550781 224.179688 C 230.398438 224.179688 230.550781 223.265625 230.550781 223.039062 C 230.550781 222.886719 231.386719 223.039062 231.617188 223.039062 C 254.476562 226.160156 251.046875 268.757812 250.972656 269.214844 C 250.972656 269.445312 250.820312 269.597656 250.589844 269.597656 Z M 250.589844 269.597656 " fill-opacity="1" fill-rule="nonzero"/><path fill="#d4def9" d="M 286.785156 235.382812 C 286.785156 235.382812 286.710938 235.382812 286.785156 235.382812 C 272.613281 233.25 262.859375 261.746094 257.296875 262.128906 C 257.21875 262.128906 257.144531 262.128906 257.066406 262.128906 C 256.992188 262.128906 256.839844 262.050781 256.761719 261.976562 C 254.78125 259.917969 256.078125 238.125 266.898438 232.5625 C 273.375 229.210938 286.023438 235.078125 286.785156 235.382812 Z M 286.785156 235.382812 " fill-opacity="1" fill-rule="nonzero"/><path fill="#d4def9" d="M 286.710938 235.382812 C 272.613281 233.25 262.859375 261.824219 257.296875 262.128906 C 257.21875 262.128906 257.144531 262.128906 257.066406 262.128906 C 256.992188 262.128906 256.839844 262.050781 256.761719 261.976562 C 257.753906 257.023438 259.429688 246.964844 265.296875 239.800781 C 273.144531 230.277344 285.792969 235.078125 286.710938 235.382812 Z M 286.710938 235.382812 " fill-opacity="1" fill-rule="nonzero"/><path fill="#d4def9" d="M 256.230469 279.273438 C 256.078125 279.273438 255.925781 279.121094 255.925781 278.96875 C 255.925781 278.511719 253.257812 236.371094 276.117188 233.25 C 276.347656 233.25 276.726562 233.25 276.804688 233.476562 C 276.804688 233.628906 276.804688 234.011719 276.652344 234.011719 C 254.476562 237.058594 256.609375 278.511719 256.6875 278.96875 C 256.535156 279.121094 256.382812 279.273438 256.230469 279.273438 Z M 256.230469 279.273438 " fill-opacity="1" fill-rule="nonzero"/><path fill="#d4def9" d="M 251.503906 233.476562 C 251.503906 233.628906 251.503906 233.628906 251.503906 233.628906 C 251.503906 233.628906 251.429688 233.554688 251.351562 233.476562 C 250.210938 232.488281 243.808594 226.238281 240.683594 211.914062 C 236.417969 192.101562 228.722656 187.527344 228.261719 187.300781 L 227.804688 187.070312 C 227.957031 187.070312 228.109375 186.996094 228.261719 186.996094 C 239.007812 185.015625 247.085938 190.195312 250.210938 202.691406 C 253.5625 216.410156 251.734375 231.648438 251.503906 233.476562 Z M 251.503906 233.476562 " fill-opacity="1" fill-rule="nonzero"/><path fill="#d4def9" d="M 251.351562 233.476562 C 250.210938 232.488281 243.808594 226.238281 240.683594 211.914062 C 236.417969 192.101562 228.722656 187.527344 228.261719 187.300781 C 228.949219 187.453125 243.199219 190.273438 247.085938 206.65625 C 249.980469 219 250.972656 229.058594 251.351562 233.476562 Z M 251.351562 233.476562 " fill-opacity="1" fill-rule="nonzero"/><path fill="#d4def9" d="M 252.953125 277.292969 C 252.800781 277.292969 252.648438 277.140625 252.648438 276.988281 L 252.648438 276.757812 C 252.875 268.53125 255.011719 201.703125 235.199219 190.121094 C 235.046875 190.042969 235.808594 189.203125 235.960938 189.28125 C 255.925781 196.519531 253.714844 263.347656 253.332031 276.835938 L 253.332031 277.0625 C 253.332031 277.140625 253.179688 277.292969 252.953125 277.292969 Z M 252.953125 277.292969 " fill-opacity="1" fill-rule="nonzero"/><path fill="#d4def9" d="M 279.316406 196.367188 L 279.242188 196.445312 L 278.859375 196.597656 C 278.859375 196.597656 270.859375 200.789062 266.441406 221.285156 C 263.085938 236.675781 255.925781 242.699219 255.621094 242.925781 C 255.621094 242.851562 255.621094 242.699219 255.542969 242.46875 C 255.164062 239.574219 253.714844 225.171875 256.992188 211.988281 C 260.113281 199.339844 268.34375 194.15625 279.316406 196.367188 Z M 279.316406 196.367188 " fill-opacity="1" fill-rule="nonzero"/><path fill="#d4def9" d="M 279.242188 196.367188 L 278.859375 196.597656 C 278.859375 196.597656 270.859375 200.789062 266.441406 221.285156 C 263.085938 236.675781 255.925781 242.699219 255.621094 242.925781 C 255.621094 242.851562 255.621094 242.699219 255.542969 242.46875 C 257.753906 222.503906 261.335938 212.597656 264.535156 206.425781 C 268.496094 198.804688 279.242188 196.367188 279.242188 196.367188 Z M 279.242188 196.367188 " fill-opacity="1" fill-rule="nonzero"/><path fill="#d4def9" d="M 253.941406 278.054688 C 253.789062 278.054688 253.636719 277.902344 253.636719 277.75 C 253.484375 255.726562 254.550781 206.046875 271.164062 198.730469 C 271.316406 198.652344 272.078125 197.738281 272.15625 197.890625 C 272.230469 198.042969 272.308594 199.109375 272.078125 199.1875 C 255.847656 206.351562 254.171875 255.804688 254.324219 277.75 C 254.324219 277.902344 254.171875 278.054688 253.941406 278.054688 Z M 253.941406 278.054688 " fill-opacity="1" fill-rule="nonzero"/><path fill="#263156" d="M 240.761719 268.910156 L 240.988281 271.347656 L 242.894531 292.53125 C 242.96875 293.675781 243.960938 294.589844 245.105469 294.589844 L 263.085938 294.742188 C 264.230469 294.742188 265.21875 293.902344 265.296875 292.761719 L 267.355469 273.710938 L 267.355469 273.632812 L 267.8125 269.140625 Z M 240.761719 268.910156 " fill-opacity="1" fill-rule="nonzero"/><path fill="#263156" d="M 239.921875 273.480469 L 268.496094 273.710938 C 268.953125 273.710938 269.410156 273.328125 269.410156 272.796875 L 269.410156 269.976562 C 269.410156 269.519531 269.03125 269.0625 268.496094 269.0625 L 239.921875 268.835938 C 239.464844 268.835938 239.007812 269.214844 239.007812 269.75 L 239.007812 272.566406 C 239.082031 273.023438 239.464844 273.480469 239.921875 273.480469 Z M 239.921875 273.480469 " fill-opacity="1" fill-rule="nonzero"/><path fill="#263156" d="M 227.652344 293.980469 L 89.882812 293.980469 C 86.378906 293.980469 83.558594 291.160156 83.558594 287.65625 L 83.558594 34.441406 C 83.558594 30.9375 86.378906 28.117188 89.882812 28.117188 L 227.652344 28.117188 C 231.160156 28.117188 233.980469 30.9375 233.980469 34.441406 L 233.980469 287.578125 C 233.980469 291.160156 231.160156 293.980469 227.652344 293.980469 Z M 227.652344 293.980469 " fill-opacity="1" fill-rule="nonzero"/><path fill="#d4def9" d="M 89.882812 38.253906 L 227.652344 38.253906 L 227.652344 276.605469 L 89.882812 276.605469 Z M 89.882812 38.253906 " fill-opacity="1" fill-rule="nonzero"/><path fill="#ffffff" d="M 93.3125 41.757812 L 224.226562 41.757812 L 224.226562 273.023438 L 93.3125 273.023438 Z M 93.3125 41.757812 " fill-opacity="1" fill-rule="nonzero"/><path fill="#d4def9" d="M 163.722656 184.328125 L 152.976562 184.328125 C 149.777344 184.328125 147.1875 181.738281 147.1875 178.535156 L 147.1875 175.640625 C 144.75 174.878906 142.386719 173.890625 140.101562 172.59375 L 138.195312 174.5 C 137.128906 175.566406 135.605469 176.175781 134.082031 176.175781 C 132.554688 176.175781 131.109375 175.566406 129.964844 174.5 L 122.34375 166.878906 C 120.058594 164.59375 120.058594 160.933594 122.34375 158.648438 L 124.402344 156.589844 C 123.183594 154.304688 122.269531 151.941406 121.507812 149.429688 L 118.839844 149.429688 C 115.640625 149.429688 113.050781 146.835938 113.050781 143.636719 L 113.050781 132.894531 C 113.050781 129.691406 115.640625 127.101562 118.839844 127.101562 L 121.734375 127.101562 C 122.496094 124.664062 123.488281 122.300781 124.785156 120.015625 L 122.878906 118.109375 C 121.8125 117.042969 121.203125 115.519531 121.203125 113.996094 C 121.203125 112.472656 121.8125 111.023438 122.878906 109.878906 L 130.5 102.261719 C 131.566406 101.195312 133.089844 100.585938 134.613281 100.585938 C 136.136719 100.585938 137.585938 101.195312 138.726562 102.261719 L 140.785156 104.316406 C 143.070312 103.097656 145.433594 102.183594 147.949219 101.421875 L 147.949219 98.753906 C 147.949219 95.554688 150.539062 92.964844 153.738281 92.964844 L 164.484375 92.964844 C 167.683594 92.964844 170.273438 95.554688 170.273438 98.753906 L 170.273438 101.652344 C 172.714844 102.414062 175.074219 103.402344 177.363281 104.699219 L 179.265625 102.792969 C 180.332031 101.726562 181.859375 101.117188 183.382812 101.117188 C 184.90625 101.117188 186.351562 101.726562 187.496094 102.792969 L 195.117188 110.414062 C 196.183594 111.480469 196.792969 113.003906 196.792969 114.527344 C 196.792969 116.054688 196.183594 117.5 195.117188 118.644531 L 193.058594 120.699219 C 194.277344 122.988281 195.191406 125.347656 195.953125 127.863281 L 198.621094 127.863281 C 201.820312 127.863281 204.414062 130.453125 204.414062 133.65625 L 204.414062 144.398438 C 204.414062 147.601562 201.820312 150.191406 198.621094 150.191406 L 195.726562 150.191406 C 194.964844 152.628906 193.972656 154.992188 192.679688 157.277344 L 194.582031 159.183594 C 195.648438 160.25 196.257812 161.773438 196.257812 163.296875 C 196.257812 164.820312 195.648438 166.269531 194.582031 167.410156 L 186.964844 175.03125 C 185.894531 176.097656 184.371094 176.707031 182.847656 176.707031 C 181.324219 176.707031 179.875 176.097656 178.734375 175.03125 L 176.675781 172.972656 C 174.390625 174.195312 172.027344 175.109375 169.511719 175.871094 L 169.511719 178.535156 C 169.511719 181.738281 166.921875 184.328125 163.722656 184.328125 Z M 140.023438 171.679688 L 140.253906 171.832031 C 142.613281 173.125 145.128906 174.195312 147.71875 175.03125 L 148.023438 175.109375 L 148.023438 178.535156 C 148.023438 181.28125 150.3125 183.566406 153.054688 183.566406 L 163.796875 183.566406 C 166.542969 183.566406 168.828125 181.28125 168.828125 178.535156 L 168.828125 175.335938 L 169.132812 175.261719 C 171.722656 174.5 174.238281 173.507812 176.675781 172.210938 L 176.90625 172.058594 L 179.34375 174.5 C 180.257812 175.414062 181.554688 175.945312 182.925781 175.945312 C 184.296875 175.945312 185.515625 175.414062 186.507812 174.5 L 194.125 166.878906 C 195.039062 165.964844 195.574219 164.667969 195.574219 163.296875 C 195.574219 161.925781 195.039062 160.707031 194.125 159.714844 L 191.839844 157.429688 L 191.992188 157.199219 C 193.289062 154.839844 194.429688 152.324219 195.191406 149.734375 L 195.269531 149.429688 L 198.699219 149.429688 C 201.441406 149.429688 203.726562 147.140625 203.726562 144.398438 L 203.726562 133.65625 C 203.726562 130.910156 201.441406 128.625 198.699219 128.625 L 195.496094 128.625 L 195.421875 128.320312 C 194.734375 125.730469 193.667969 123.214844 192.375 120.851562 L 192.222656 120.625 L 194.660156 118.1875 C 195.574219 117.273438 196.105469 115.976562 196.105469 114.605469 C 196.105469 113.234375 195.574219 112.015625 194.660156 111.023438 L 187.039062 103.402344 C 186.125 102.488281 184.828125 101.957031 183.457031 101.957031 C 182.085938 101.957031 180.867188 102.488281 179.875 103.402344 L 177.589844 105.691406 L 177.363281 105.539062 C 175 104.242188 172.484375 103.175781 169.894531 102.335938 L 169.589844 102.261719 L 169.589844 98.832031 C 169.589844 96.089844 167.304688 93.800781 164.558594 93.800781 L 153.816406 93.800781 C 151.074219 93.800781 148.785156 96.089844 148.785156 98.832031 L 148.785156 102.03125 L 148.480469 102.109375 C 145.890625 102.792969 143.375 103.859375 140.9375 105.15625 L 140.710938 105.308594 L 138.269531 102.871094 C 137.355469 101.957031 136.0625 101.421875 134.691406 101.421875 C 133.316406 101.421875 132.097656 101.957031 131.109375 102.871094 L 123.488281 110.488281 C 122.574219 111.40625 122.039062 112.699219 122.039062 114.070312 C 122.039062 115.441406 122.574219 116.664062 123.488281 117.652344 L 125.773438 119.9375 L 125.621094 120.167969 C 124.328125 122.53125 123.261719 125.042969 122.421875 127.636719 L 122.34375 127.941406 L 118.917969 127.941406 C 116.171875 127.941406 113.886719 130.226562 113.886719 132.96875 L 113.886719 143.714844 C 113.886719 146.457031 116.171875 148.742188 118.917969 148.742188 L 122.117188 148.742188 L 122.191406 149.046875 C 122.878906 151.636719 123.945312 154.152344 125.164062 156.515625 L 125.316406 156.742188 L 122.878906 159.183594 C 120.898438 161.164062 120.898438 164.363281 122.878906 166.34375 L 130.5 173.964844 C 131.488281 174.878906 132.707031 175.414062 134.082031 175.414062 C 135.453125 175.414062 136.671875 174.878906 137.660156 173.964844 Z M 158.769531 156.820312 C 148.785156 156.820312 140.710938 148.742188 140.710938 138.761719 C 140.710938 128.398438 149.472656 120.089844 159.988281 120.777344 C 169.054688 121.386719 176.296875 128.625 176.828125 137.695312 C 177.132812 142.722656 175.378906 147.523438 171.953125 151.179688 C 168.445312 154.839844 163.796875 156.820312 158.769531 156.820312 Z M 158.769531 121.464844 C 149.242188 121.464844 141.472656 129.234375 141.472656 138.761719 C 141.472656 148.285156 149.242188 156.058594 158.769531 156.058594 C 163.570312 156.058594 168.066406 154.152344 171.34375 150.648438 C 174.617188 147.140625 176.296875 142.570312 175.992188 137.695312 C 175.457031 129.007812 168.523438 122.074219 159.910156 121.539062 C 159.53125 121.464844 159.148438 121.464844 158.769531 121.464844 Z M 158.769531 121.464844 " fill-opacity="1" fill-rule="nonzero"/><path fill="#d4def9" d="M 198.546875 130.683594 L 193.820312 130.683594 C 192.984375 127.027344 191.609375 123.597656 189.707031 120.394531 L 193.136719 116.96875 C 194.355469 115.746094 194.355469 113.765625 193.136719 112.546875 L 185.515625 104.925781 C 184.296875 103.707031 182.316406 103.707031 181.09375 104.925781 L 177.742188 108.28125 C 174.617188 106.300781 171.191406 104.851562 167.609375 103.9375 L 167.609375 99.058594 C 167.609375 97.308594 166.238281 95.9375 164.484375 95.9375 L 153.738281 95.9375 C 151.988281 95.9375 150.617188 97.308594 150.617188 99.058594 L 150.617188 103.785156 C 146.957031 104.621094 143.527344 105.996094 140.328125 107.898438 L 136.898438 104.46875 C 135.679688 103.25 133.699219 103.25 132.480469 104.46875 L 124.859375 112.089844 C 123.640625 113.308594 123.640625 115.289062 124.859375 116.511719 L 128.210938 119.863281 C 126.230469 122.988281 124.785156 126.339844 123.871094 129.996094 L 118.992188 129.996094 C 117.238281 129.996094 115.867188 131.367188 115.867188 133.121094 L 115.867188 143.867188 C 115.867188 145.617188 117.238281 146.988281 118.992188 146.988281 L 123.71875 146.988281 C 124.554688 150.648438 125.925781 154.078125 127.832031 157.277344 L 124.328125 160.78125 C 123.105469 162 123.105469 163.984375 124.328125 165.203125 L 131.945312 172.820312 C 133.164062 174.042969 135.148438 174.042969 136.367188 172.820312 L 139.71875 169.46875 C 142.84375 171.449219 146.195312 172.898438 149.855469 173.8125 L 149.855469 178.6875 C 149.855469 180.441406 151.226562 181.8125 152.976562 181.8125 L 163.722656 181.8125 C 165.476562 181.8125 166.847656 180.441406 166.847656 178.6875 L 166.847656 173.964844 C 170.503906 173.125 173.933594 171.753906 177.058594 169.851562 L 180.484375 173.277344 C 181.707031 174.5 183.6875 174.5 184.90625 173.277344 L 192.527344 165.660156 C 193.746094 164.441406 193.746094 162.457031 192.527344 161.238281 L 189.171875 157.886719 C 191.152344 154.761719 192.601562 151.410156 193.515625 147.753906 L 198.394531 147.753906 C 200.144531 147.753906 201.515625 146.378906 201.515625 144.628906 L 201.515625 133.882812 C 201.667969 132.054688 200.296875 130.683594 198.546875 130.683594 Z M 158.769531 158.726562 C 147.71875 158.726562 138.804688 149.808594 138.804688 138.761719 C 138.804688 127.253906 148.480469 118.109375 160.140625 118.871094 C 170.046875 119.558594 178.125 127.636719 178.734375 137.542969 C 179.417969 149.125 170.199219 158.726562 158.769531 158.726562 Z M 158.769531 158.726562 " fill-opacity="1" fill-rule="nonzero"/><path fill="#5e91f8" d="M 198.546875 130.683594 L 193.820312 130.683594 C 192.984375 127.027344 191.609375 123.597656 189.707031 120.394531 L 193.136719 116.96875 C 194.355469 115.746094 194.355469 113.765625 193.136719 112.546875 L 185.515625 104.925781 C 184.296875 103.707031 182.316406 103.707031 181.09375 104.925781 L 177.742188 108.28125 C 174.617188 106.300781 171.191406 104.851562 167.609375 103.9375 L 167.609375 99.058594 C 167.609375 97.308594 166.238281 95.9375 164.484375 95.9375 L 160.0625 95.9375 L 160.0625 118.949219 C 169.96875 119.632812 178.046875 127.710938 178.65625 137.617188 C 179.34375 149.199219 170.199219 158.800781 158.691406 158.800781 C 152.902344 158.800781 147.71875 156.363281 144.0625 152.398438 L 127.832031 168.632812 L 131.871094 172.667969 C 133.089844 173.890625 135.070312 173.890625 136.289062 172.667969 L 139.644531 169.316406 C 142.765625 171.222656 146.121094 172.746094 149.777344 173.660156 L 149.777344 178.535156 C 149.777344 180.289062 151.148438 181.660156 152.902344 181.660156 L 163.644531 181.660156 C 165.398438 181.660156 166.769531 180.289062 166.769531 178.535156 L 166.769531 173.8125 C 170.425781 172.972656 173.855469 171.601562 176.980469 169.699219 L 180.484375 173.125 C 181.707031 174.347656 183.6875 174.347656 184.90625 173.125 L 192.527344 165.507812 C 193.746094 164.289062 193.746094 162.304688 192.527344 161.085938 L 189.171875 157.734375 C 191.152344 154.609375 192.601562 151.257812 193.515625 147.601562 L 198.394531 147.601562 C 200.144531 147.601562 201.515625 146.226562 201.515625 144.476562 L 201.515625 133.730469 C 201.667969 132.054688 200.296875 130.683594 198.546875 130.683594 Z M 198.546875 130.683594 " fill-opacity="1" fill-rule="nonzero"/><path fill="#263156" d="M 153.585938 137.085938 C 153.511719 136.550781 153.207031 136.246094 152.597656 136.246094 C 151.757812 136.246094 151.378906 137.007812 151.378906 138.53125 C 151.683594 138 152.367188 137.695312 153.128906 137.695312 C 154.578125 137.695312 155.570312 138.609375 155.570312 140.359375 C 155.570312 141.960938 154.5 143.105469 152.75 143.105469 C 150.3125 143.105469 149.703125 141.351562 149.703125 138.914062 C 149.703125 136.09375 150.539062 134.722656 152.671875 134.722656 C 154.425781 134.722656 155.1875 135.863281 155.339844 137.085938 Z M 151.605469 140.359375 C 151.605469 141.046875 151.988281 141.503906 152.75 141.503906 C 153.433594 141.503906 153.816406 141.121094 153.816406 140.359375 C 153.816406 139.675781 153.433594 139.21875 152.75 139.21875 C 152.140625 139.292969 151.605469 139.597656 151.605469 140.359375 Z M 151.605469 140.359375 " fill-opacity="1" fill-rule="nonzero"/><path fill="#263156" d="M 162.503906 134.875 L 162.503906 136.550781 L 158.996094 136.550781 L 158.996094 138.074219 C 159.300781 137.769531 159.835938 137.542969 160.523438 137.542969 C 162.273438 137.542969 162.960938 138.914062 162.960938 140.207031 C 162.960938 141.960938 161.96875 143.027344 160.140625 143.027344 C 158.3125 143.027344 157.246094 142.035156 157.167969 140.589844 L 159.074219 140.589844 C 159.148438 141.046875 159.453125 141.425781 160.140625 141.425781 C 160.902344 141.425781 161.207031 140.894531 161.207031 140.207031 C 161.207031 139.445312 160.828125 139.066406 160.140625 139.066406 C 159.605469 139.066406 159.300781 139.371094 159.148438 139.75 L 157.320312 139.75 L 157.320312 134.875 Z M 162.503906 134.875 " fill-opacity="1" fill-rule="nonzero"/><path fill="#263156" d="M 165.703125 135.101562 C 166.769531 135.101562 167.53125 135.789062 167.53125 137.007812 C 167.53125 138.226562 166.769531 138.914062 165.703125 138.914062 C 164.636719 138.914062 163.796875 138.226562 163.796875 137.007812 C 163.796875 135.789062 164.636719 135.101562 165.703125 135.101562 Z M 165.167969 136.933594 C 165.167969 137.464844 165.398438 137.695312 165.703125 137.695312 C 166.007812 137.695312 166.238281 137.464844 166.238281 136.933594 C 166.238281 136.398438 166.007812 136.167969 165.703125 136.167969 C 165.398438 136.167969 165.167969 136.398438 165.167969 136.933594 Z M 169.589844 135.179688 L 171.417969 135.179688 L 167.074219 143.105469 L 165.246094 143.105469 Z M 171.039062 139.445312 C 172.105469 139.445312 172.867188 140.054688 172.867188 141.351562 C 172.867188 142.570312 172.105469 143.257812 171.039062 143.257812 C 169.96875 143.257812 169.207031 142.570312 169.207031 141.351562 C 169.207031 140.054688 169.96875 139.445312 171.039062 139.445312 Z M 170.503906 141.273438 C 170.503906 141.808594 170.734375 142.035156 171.039062 142.035156 C 171.34375 142.035156 171.570312 141.808594 171.570312 141.273438 C 171.570312 140.742188 171.34375 140.511719 171.039062 140.511719 C 170.734375 140.511719 170.503906 140.816406 170.503906 141.273438 Z M 170.503906 141.273438 " fill-opacity="1" fill-rule="nonzero"/><path fill="#5e91f8" d="M 259.734375 84.964844 L 158.007812 84.964844 C 155.949219 84.964844 154.273438 83.285156 154.273438 81.230469 L 154.273438 55.09375 C 154.273438 53.035156 155.949219 51.359375 158.007812 51.359375 L 259.734375 51.359375 C 261.792969 51.359375 263.46875 53.035156 263.46875 55.09375 L 263.46875 81.230469 C 263.46875 83.285156 261.792969 84.964844 259.734375 84.964844 Z M 259.734375 84.964844 " fill-opacity="1" fill-rule="nonzero"/><path fill="#ffffff" d="M 170.65625 62.558594 L 173.628906 62.558594 L 173.628906 69.875 C 173.628906 71.324219 174.3125 72.160156 175.761719 72.160156 C 177.210938 72.160156 177.894531 71.324219 177.894531 69.875 L 177.894531 62.558594 L 180.867188 62.558594 L 180.867188 69.800781 C 180.867188 73.152344 178.503906 74.828125 175.683594 74.828125 C 172.867188 74.828125 170.65625 73.152344 170.65625 69.800781 Z M 170.65625 62.558594 " fill-opacity="1" fill-rule="nonzero"/><path fill="#ffffff" d="M 189.476562 70.410156 L 187.648438 70.410156 L 187.648438 74.753906 L 184.675781 74.753906 L 184.675781 62.558594 L 189.476562 62.558594 C 192.449219 62.558594 193.972656 64.238281 193.972656 66.445312 C 193.972656 68.503906 192.601562 70.410156 189.476562 70.410156 Z M 189.25 68.046875 C 190.390625 68.046875 190.925781 67.4375 190.925781 66.523438 C 190.925781 65.609375 190.390625 65 189.25 65 L 187.648438 65 L 187.648438 68.046875 Z M 189.25 68.046875 " fill-opacity="1" fill-rule="nonzero"/><path fill="#ffffff" d="M 208.222656 68.65625 C 208.222656 72.238281 205.707031 74.753906 201.820312 74.753906 L 197.25 74.753906 L 197.25 62.558594 L 201.820312 62.558594 C 205.707031 62.558594 208.222656 65.074219 208.222656 68.65625 Z M 201.59375 72.238281 C 203.804688 72.238281 205.175781 70.941406 205.175781 68.734375 C 205.175781 66.523438 203.878906 65.152344 201.59375 65.152344 L 200.222656 65.152344 L 200.222656 72.238281 Z M 201.59375 72.238281 " fill-opacity="1" fill-rule="nonzero"/><path fill="#ffffff" d="M 219.195312 72.617188 L 214.625 72.617188 L 213.863281 74.753906 L 210.738281 74.753906 L 215.15625 62.558594 L 218.585938 62.558594 L 223.003906 74.753906 L 219.882812 74.753906 Z M 216.910156 65.835938 L 215.386719 70.332031 L 218.359375 70.332031 Z M 216.910156 65.835938 " fill-opacity="1" fill-rule="nonzero"/><path fill="#ffffff" d="M 225.445312 62.558594 L 234.894531 62.558594 L 234.894531 64.921875 L 231.691406 64.921875 L 231.691406 74.753906 L 228.722656 74.753906 L 228.722656 65 L 225.519531 65 L 225.519531 62.558594 Z M 225.445312 62.558594 " fill-opacity="1" fill-rule="nonzero"/><path fill="#ffffff" d="M 245.5625 65 L 241.066406 65 L 241.066406 67.4375 L 245.027344 67.4375 L 245.027344 69.722656 L 241.066406 69.722656 L 241.066406 72.390625 L 245.5625 72.390625 L 245.5625 74.753906 L 238.09375 74.753906 L 238.09375 62.558594 L 245.5625 62.558594 Z M 245.5625 65 " fill-opacity="1" fill-rule="nonzero"/><path fill="#f9c4a0" d="M 46.070312 156.820312 C 45.765625 157.277344 45.15625 157.125 44.238281 156.515625 C 43.402344 155.980469 42.335938 154.992188 41.117188 153.695312 C 39.59375 152.09375 37.839844 150.113281 35.933594 147.828125 C 27.324219 137.3125 16.65625 121.464844 17.113281 120.089844 C 17.875 118.035156 17.796875 116.128906 22.445312 117.273438 C 23.285156 117.5 23.972656 117.957031 24.429688 118.644531 C 26.867188 122.226562 35.402344 134.644531 41.039062 144.476562 C 42.183594 146.53125 43.25 148.4375 44.085938 150.113281 C 45.765625 153.46875 46.679688 155.980469 46.070312 156.820312 Z M 46.070312 156.820312 " fill-opacity="1" fill-rule="nonzero"/><path fill="#f9c4a0" d="M 53.535156 160.628906 C 53.460938 160.707031 53.460938 160.707031 53.382812 160.707031 L 51.097656 161.390625 C 50.792969 161.621094 49.496094 161.542969 49.117188 161.390625 L 47.363281 160.78125 C 45.839844 160.097656 44.394531 159.03125 43.25 157.808594 L 41.039062 154.535156 L 40.582031 153.847656 L 41.421875 153.085938 L 44.394531 150.113281 L 44.773438 150.113281 L 47.441406 150.265625 C 48.203125 150.34375 48.964844 150.570312 49.652344 150.953125 L 52.089844 153.46875 C 52.089844 153.46875 51.402344 153.847656 50.335938 153.46875 C 49.878906 153.238281 49.117188 153.316406 48.429688 153.316406 L 49.957031 154.535156 L 53.460938 157.808594 C 54.449219 158.496094 54.375 159.867188 53.535156 160.628906 Z M 53.535156 160.628906 " fill-opacity="1" fill-rule="nonzero"/><path fill="#f9c4a0" d="M 39.058594 87.019531 C 37.078125 86.640625 37.609375 84.199219 36.390625 85.800781 C 30.828125 92.886719 12.769531 116.96875 17.796875 121.234375 C 23.742188 126.261719 38.523438 104.011719 41.953125 97.078125 C 44.773438 91.210938 43.859375 87.933594 39.058594 87.019531 Z M 39.058594 87.019531 " fill-opacity="1" fill-rule="nonzero"/><path fill="#f9c4a0" d="M 33.113281 111.480469 C 33.113281 111.480469 27.398438 118.796875 27.246094 119.785156 C 27.019531 120.699219 44.46875 150.039062 44.46875 150.039062 L 40.660156 153.773438 C 40.660156 153.773438 15.285156 126.875 15.285156 119.710938 C 15.285156 112.546875 25.953125 99.515625 25.953125 99.515625 Z M 33.113281 111.480469 " fill-opacity="1" fill-rule="nonzero"/><path fill="#263156" d="M 44.164062 93.574219 C 43.859375 95.859375 42.945312 97.917969 41.648438 99.820312 C 40.507812 101.574219 38.828125 104.089844 37 106.832031 C 37 106.832031 37 106.910156 36.925781 106.910156 C 36.695312 107.214844 36.542969 107.519531 36.316406 107.824219 C 35.707031 108.8125 35.019531 109.726562 34.335938 110.71875 C 34.03125 111.175781 33.722656 111.558594 33.417969 112.015625 L 33.039062 111.710938 L 27.09375 106.605469 L 22.140625 102.335938 C 27.550781 93.800781 31.820312 88.773438 34.488281 85.726562 C 36.316406 83.667969 39.363281 83.4375 41.421875 85.191406 C 43.25 86.792969 44.773438 89.382812 44.164062 93.574219 Z M 44.164062 93.574219 " fill-opacity="1" fill-rule="nonzero"/><path fill="#f9c4a0" d="M 45.992188 85.800781 L 47.136719 79.78125 C 47.136719 79.78125 40.203125 63.703125 48.125 60.882812 C 56.050781 58.066406 62.070312 65.074219 61.082031 71.78125 C 60.089844 78.484375 59.328125 80.085938 56.203125 80.011719 L 56.050781 85.574219 " fill-opacity="1" fill-rule="nonzero"/><path fill="#f9c4a0" d="M 53.15625 156.4375 C 48.507812 156.894531 45.15625 161.542969 45.917969 166.421875 C 46.449219 170.308594 47.746094 175.414062 50.488281 181.507812 C 57.347656 196.824219 61.308594 216.5625 67.863281 217.550781 C 74.414062 218.542969 76.703125 206.960938 72.890625 190.957031 C 69.386719 176.480469 68.929688 158.34375 64.28125 156.667969 C 61.917969 155.828125 57.269531 156.058594 53.15625 156.4375 Z M 53.15625 156.4375 " fill-opacity="1" fill-rule="nonzero"/><path fill="#f9c4a0" d="M 60.851562 218.921875 C 60.851562 218.921875 61.15625 242.242188 66.949219 275.617188 L 76.929688 274.929688 C 76.929688 274.929688 77.539062 230.808594 75.253906 217.171875 C 73.042969 203.53125 60.851562 218.921875 60.851562 218.921875 Z M 60.851562 218.921875 " fill-opacity="1" fill-rule="nonzero"/><path fill="#f9c4a0" d="M 36.316406 155.980469 C 31.667969 155.296875 27.324219 158.953125 26.867188 163.90625 C 26.484375 167.792969 26.484375 173.050781 27.628906 179.679688 C 30.523438 196.214844 29.609375 216.332031 35.78125 218.847656 C 41.878906 221.4375 46.984375 210.695312 47.136719 194.234375 C 47.289062 179.375 51.25 161.621094 47.136719 158.878906 C 45.003906 157.503906 40.429688 156.515625 36.316406 155.980469 Z M 36.316406 155.980469 " fill-opacity="1" fill-rule="nonzero"/><path fill="#f9c4a0" d="M 28.085938 220.523438 C 28.085938 220.523438 22.523438 251.003906 22.828125 274.167969 L 32.429688 274.929688 C 32.429688 274.929688 42.488281 228.980469 43.019531 220.675781 C 43.554688 212.371094 28.085938 220.523438 28.085938 220.523438 Z M 28.085938 220.523438 " fill-opacity="1" fill-rule="nonzero"/><path fill="#f9c4a0" d="M 40.660156 214.65625 C 29.914062 204.445312 22.445312 263.882812 23.363281 280.417969 C 24.277344 296.875 29.6875 284.148438 35.628906 258.851562 C 41.574219 233.554688 44.851562 218.617188 40.660156 214.65625 Z M 40.660156 214.65625 " fill-opacity="1" fill-rule="nonzero"/><path fill="#f9c4a0" d="M 66.949219 275.691406 L 67.710938 283.691406 L 77.082031 283.691406 L 76.929688 274.929688 Z M 66.949219 275.691406 " fill-opacity="1" fill-rule="nonzero"/><path fill="#f9c4a0" d="M 22.828125 274.246094 L 21.988281 282.246094 L 31.285156 283.617188 L 32.429688 274.929688 Z M 22.828125 274.246094 " fill-opacity="1" fill-rule="nonzero"/><path fill="#263156" d="M 67.558594 293.828125 L 67.558594 282.015625 C 67.558594 282.015625 71.214844 283.464844 77.082031 281.636719 C 77.082031 281.636719 81.425781 286.132812 85.539062 286.589844 C 89.65625 286.96875 91.789062 288.796875 91.867188 291.238281 C 91.941406 295.429688 67.558594 293.828125 67.558594 293.828125 Z M 67.558594 293.828125 " fill-opacity="1" fill-rule="nonzero"/><path fill="#263156" d="M 22.140625 281.027344 C 22.140625 281.027344 29.078125 282.625 31.515625 281.941406 C 31.515625 281.941406 32.046875 285.675781 32.429688 287.046875 C 32.808594 288.417969 33.039062 289.40625 35.324219 290.398438 C 37.914062 291.542969 37.914062 295.046875 35.402344 294.894531 C 32.886719 294.742188 20.390625 292.609375 20.390625 292.609375 Z M 22.140625 281.027344 " fill-opacity="1" fill-rule="nonzero"/><path fill="#5e91f8" d="M 66.71875 154.535156 C 66.71875 154.535156 77.921875 201.777344 78.148438 215.035156 C 78.378906 228.296875 78.148438 275.996094 78.148438 275.996094 L 65.347656 276.300781 L 58.109375 214.351562 C 58.109375 214.351562 41.574219 165.050781 40.886719 158.878906 C 40.125 152.707031 66.71875 154.535156 66.71875 154.535156 Z M 66.71875 154.535156 " fill-opacity="1" fill-rule="nonzero"/><path fill="#5e91f8" d="M 24.734375 154.304688 C 24.734375 154.304688 22.292969 163.984375 22.980469 172.820312 C 23.667969 181.660156 25.34375 213.132812 25.113281 215.875 C 24.886719 218.617188 21.226562 276.605469 21.226562 276.605469 L 34.257812 278.433594 C 34.257812 278.433594 44.773438 223.875 46.144531 216.5625 C 47.515625 209.246094 47.972656 157.65625 47.972656 157.65625 Z M 24.734375 154.304688 " fill-opacity="1" fill-rule="nonzero"/><path fill="#263156" d="M 47.746094 182.726562 C 47.667969 182.726562 47.59375 182.652344 47.59375 182.574219 L 41.878906 169.089844 C 41.800781 169.011719 41.878906 168.859375 41.953125 168.859375 C 42.03125 168.859375 42.183594 168.859375 42.183594 168.9375 L 47.898438 182.421875 C 47.898438 182.574219 47.898438 182.726562 47.746094 182.726562 Z M 47.746094 182.726562 " fill-opacity="1" fill-rule="nonzero"/><path fill="#263156" d="M 71.292969 99.59375 C 71.292969 99.746094 71.292969 99.972656 71.214844 100.203125 L 71.214844 100.355469 C 71.140625 100.8125 71.140625 101.269531 71.0625 101.726562 C 70.988281 102.183594 70.910156 102.640625 70.910156 103.097656 C 70.835938 103.859375 70.757812 104.621094 70.605469 105.386719 C 70.527344 105.917969 70.453125 106.453125 70.375 106.984375 C 70.070312 109.5 69.691406 112.167969 69.386719 114.984375 C 69.082031 117.652344 68.777344 120.394531 68.472656 123.214844 C 67.9375 128.320312 67.558594 133.578125 67.40625 138.53125 C 67.175781 145.238281 67.40625 151.410156 68.394531 156.058594 C 68.394531 156.058594 53.535156 162.078125 38.21875 160.097656 C 33.113281 159.488281 27.933594 157.964844 23.207031 154.992188 C 23.207031 154.992188 27.246094 130.605469 28.464844 117.5 C 29.761719 104.316406 30.90625 86.488281 36.773438 83.820312 C 39.210938 82.675781 43.628906 82.980469 46.375 83.285156 C 47.058594 83.363281 47.972656 84.125 50.109375 84.355469 C 53.535156 84.8125 55.824219 84.429688 55.824219 84.429688 C 60.699219 85.191406 70.527344 87.78125 71.292969 97.078125 C 71.367188 97.839844 71.367188 98.679688 71.292969 99.59375 Z M 71.292969 99.59375 " fill-opacity="1" fill-rule="nonzero"/><path fill="#f9c4a0" d="M 119.375 132.816406 C 119.527344 133.351562 119.070312 133.730469 118 134.035156 C 117.011719 134.339844 115.5625 134.570312 113.8125 134.722656 C 111.601562 134.949219 108.933594 135.027344 106.039062 135.027344 C 92.476562 135.101562 73.425781 133.503906 72.664062 132.132812 C 71.519531 130.226562 69.996094 129.160156 73.804688 126.1875 C 74.492188 125.652344 75.328125 125.425781 76.167969 125.5 C 80.433594 125.804688 95.523438 127.027344 106.648438 128.855469 C 108.933594 129.234375 111.144531 129.617188 112.972656 130.074219 C 116.554688 130.910156 119.070312 131.828125 119.375 132.816406 Z M 119.375 132.816406 " fill-opacity="1" fill-rule="nonzero"/><path fill="#f9c4a0" d="M 124.023438 131.980469 C 124.328125 134.570312 122.269531 135.027344 122.269531 135.027344 C 121.050781 135.636719 118.765625 135.40625 117.390625 135.558594 C 117.164062 135.558594 117.011719 135.558594 116.78125 135.558594 L 113.582031 135.253906 L 112.820312 135.179688 L 112.742188 134.1875 L 112.4375 131.140625 L 112.363281 130.453125 L 112.589844 130.226562 L 114.191406 128.472656 C 114.648438 127.941406 115.257812 127.558594 115.867188 127.332031 L 118.917969 127.027344 C 118.917969 127.027344 118.839844 127.710938 117.925781 128.167969 C 117.542969 128.398438 117.085938 128.929688 116.78125 129.386719 L 118.460938 129.007812 L 120.289062 128.855469 C 121.355469 128.855469 123.71875 129.539062 124.023438 131.980469 Z M 124.023438 131.980469 " fill-opacity="1" fill-rule="nonzero"/><path fill="#f9c4a0" d="M 60.625 94.335938 C 59.097656 95.632812 57.5 93.726562 57.957031 95.632812 C 60.011719 104.394531 67.328125 133.65625 73.804688 132.4375 C 81.425781 130.988281 73.425781 105.539062 70.222656 98.449219 C 67.480469 92.582031 64.433594 91.210938 60.625 94.335938 Z M 60.625 94.335938 " fill-opacity="1" fill-rule="nonzero"/><path fill="#f9c4a0" d="M 74.1875 108.203125 L 78.605469 122.605469 L 112.972656 130.148438 L 112.972656 135.253906 C 112.972656 135.253906 91.558594 135.789062 83.332031 134.722656 C 75.101562 133.730469 73.347656 134.113281 70.148438 131.675781 C 66.949219 129.234375 61.082031 111.558594 61.082031 111.558594 Z M 74.1875 108.203125 " fill-opacity="1" fill-rule="nonzero"/><path fill="#263156" d="M 74.871094 108.355469 L 61.003906 112.929688 C 58.71875 107.289062 56.738281 101.5 56.203125 98.375 C 55.746094 95.707031 58.261719 91.898438 60.929688 91.441406 C 63.214844 90.984375 68.015625 88.238281 69.84375 92.050781 C 72.433594 97.460938 74.1875 106.070312 74.871094 108.355469 Z M 74.871094 108.355469 " fill-opacity="1" fill-rule="nonzero"/><path fill="#d4def9" d="M 61.386719 113.003906 C 61.308594 113.003906 61.234375 112.929688 61.234375 112.851562 L 57.957031 102.71875 C 57.957031 102.640625 57.957031 102.488281 58.109375 102.488281 C 58.183594 102.488281 58.335938 102.488281 58.335938 102.640625 L 61.613281 112.777344 C 61.613281 112.851562 61.539062 112.929688 61.386719 113.003906 Z M 61.386719 113.003906 " fill-opacity="1" fill-rule="nonzero"/><path fill="#d4def9" d="M 29.304688 108.738281 C 29.152344 108.738281 29.078125 108.660156 29.152344 108.507812 L 30.21875 96.699219 C 30.21875 96.621094 30.296875 96.546875 30.449219 96.546875 C 30.523438 96.546875 30.601562 96.621094 30.601562 96.773438 L 29.535156 108.585938 C 29.457031 108.660156 29.382812 108.738281 29.304688 108.738281 Z M 29.304688 108.738281 " fill-opacity="1" fill-rule="nonzero"/><path fill="#ffffff" d="M 46.601562 82.371094 L 45.839844 83.210938 C 45.839844 83.210938 48.125 84.734375 51.097656 84.8125 C 54.070312 84.964844 55.441406 84.8125 56.8125 84.429688 L 56.050781 83.515625 C 56.128906 83.515625 50.414062 84.277344 46.601562 82.371094 Z M 46.601562 82.371094 " fill-opacity="1" fill-rule="nonzero"/><path fill="#263156" d="M 65.117188 65.53125 C 65.195312 65 65.042969 64.464844 64.738281 64.085938 C 65.042969 63.628906 65.195312 63.09375 65.347656 62.484375 C 65.425781 62.179688 65.425781 61.875 65.347656 61.570312 C 65.578125 61.113281 65.730469 60.65625 65.804688 60.121094 C 66.1875 57.757812 64.507812 55.550781 62.148438 55.167969 C 61.15625 55.015625 60.167969 55.246094 59.328125 55.703125 C 59.25 55.703125 59.175781 55.625 59.097656 55.625 C 58.183594 55.472656 57.269531 56.007812 56.890625 56.84375 C 56.660156 56.769531 56.433594 56.691406 56.203125 56.691406 C 54.984375 56.539062 53.839844 56.84375 52.925781 57.53125 C 52.699219 56.769531 52.089844 56.234375 51.25 56.082031 C 50.414062 55.929688 49.652344 56.386719 49.191406 56.996094 C 48.964844 56.921875 48.8125 56.84375 48.582031 56.84375 C 46.222656 56.464844 44.011719 58.140625 43.628906 60.503906 C 43.628906 60.578125 43.628906 60.65625 43.628906 60.808594 C 43.097656 60.882812 42.640625 61.339844 42.5625 61.875 C 42.488281 62.179688 42.640625 62.558594 42.792969 62.789062 C 42.410156 63.324219 42.105469 63.933594 42.03125 64.617188 C 41.878906 65.761719 42.183594 66.828125 42.792969 67.742188 C 42.257812 68.351562 41.800781 69.113281 41.726562 70.027344 C 41.421875 72.007812 42.488281 73.839844 44.238281 74.601562 C 44.164062 75.363281 44.46875 76.046875 45.078125 76.503906 C 44.851562 76.734375 44.699219 76.960938 44.699219 77.191406 C 44.621094 77.875 45.078125 78.5625 45.765625 78.636719 C 45.917969 78.636719 46.070312 78.636719 46.222656 78.636719 C 46.679688 79.324219 46.984375 79.628906 46.984375 79.628906 C 48.429688 79.859375 50.03125 79.628906 51.328125 78.941406 C 51.480469 79.019531 51.632812 79.097656 51.859375 79.171875 C 52.546875 79.25 53.230469 78.789062 53.308594 78.105469 C 53.382812 77.800781 53.230469 77.496094 53.078125 77.265625 C 53.15625 77.191406 53.15625 77.113281 53.230469 77.039062 C 54.753906 73.992188 54.910156 73.992188 55.289062 71.246094 C 55.59375 68.582031 58.871094 69.875 61.84375 69.039062 C 62.527344 68.808594 63.0625 68.121094 63.441406 67.132812 C 64.355469 67.054688 64.964844 66.371094 65.117188 65.53125 Z M 65.117188 65.53125 " fill-opacity="1" fill-rule="nonzero"/><path fill="#d4def9" d="M 209.441406 258.242188 L 108.25 258.242188 C 105.429688 258.242188 103.066406 255.957031 103.066406 253.0625 L 103.066406 207.949219 C 103.066406 205.128906 105.351562 202.769531 108.25 202.769531 L 209.519531 202.769531 C 212.335938 202.769531 214.699219 205.054688 214.699219 207.949219 L 214.699219 253.0625 C 214.625 255.957031 212.335938 258.242188 209.441406 258.242188 Z M 209.441406 258.242188 " fill-opacity="1" fill-rule="nonzero"/><path fill="#263156" d="M 209.441406 258.546875 L 108.25 258.546875 C 105.277344 258.546875 102.761719 256.109375 102.761719 253.0625 L 102.761719 207.949219 C 102.761719 204.976562 105.199219 202.464844 108.25 202.464844 L 209.519531 202.464844 C 212.488281 202.464844 215.003906 204.902344 215.003906 207.949219 L 215.003906 253.0625 C 214.929688 256.109375 212.488281 258.546875 209.441406 258.546875 Z M 108.25 203.074219 C 105.582031 203.074219 103.371094 205.285156 103.371094 207.949219 L 103.371094 253.0625 C 103.371094 255.726562 105.582031 257.9375 108.25 257.9375 L 209.519531 257.9375 C 212.183594 257.9375 214.394531 255.726562 214.394531 253.0625 L 214.394531 207.949219 C 214.394531 205.285156 212.183594 203.074219 209.519531 203.074219 Z M 108.25 203.074219 " fill-opacity="1" fill-rule="nonzero"/><path fill="#ffffff" d="M 175.914062 221.363281 C 175.914062 221.058594 175.992188 220.828125 175.992188 220.523438 C 175.992188 215.722656 172.105469 211.835938 167.304688 211.835938 C 163.417969 211.835938 160.140625 214.425781 158.996094 217.933594 C 158.769531 217.933594 158.617188 217.933594 158.386719 217.933594 C 156.863281 217.933594 155.417969 218.464844 154.273438 219.378906 C 152.976562 218.695312 151.53125 218.238281 150.007812 218.238281 C 145.816406 218.238281 142.386719 221.132812 141.546875 225.09375 C 141.015625 224.941406 140.480469 224.867188 139.871094 224.867188 C 136.289062 224.867188 133.394531 227.761719 133.394531 231.34375 C 133.394531 233.476562 134.460938 235.382812 136.0625 236.523438 L 156.179688 236.523438 C 156.253906 236.449219 156.253906 236.449219 156.332031 236.371094 C 156.40625 236.449219 156.484375 236.449219 156.558594 236.523438 L 181.554688 236.523438 C 183.304688 234.925781 184.371094 232.640625 184.371094 230.125 C 184.371094 225.324219 180.636719 221.4375 175.914062 221.363281 Z M 175.914062 221.363281 " fill-opacity="1" fill-rule="nonzero"/><path fill="#263156" d="M 154.042969 225.933594 L 163.644531 225.933594 L 163.644531 239.648438 L 154.042969 239.648438 Z M 154.042969 225.933594 " fill-opacity="1" fill-rule="nonzero"/><path fill="#263156" d="M 158.84375 249.175781 L 150.84375 239.117188 L 166.921875 239.117188 Z M 158.84375 249.175781 " fill-opacity="1" fill-rule="nonzero"/><path fill="#d4def9" d="M 10.710938 179.984375 C 7.433594 179.984375 4.691406 177.316406 4.691406 173.964844 C 4.691406 170.6875 7.359375 167.945312 10.710938 167.945312 C 13.988281 167.945312 16.730469 170.613281 16.730469 173.964844 C 16.730469 177.316406 13.988281 179.984375 10.710938 179.984375 Z M 10.710938 169.851562 C 8.425781 169.851562 6.597656 171.679688 6.597656 173.964844 C 6.597656 176.25 8.425781 178.078125 10.710938 178.078125 C 13 178.078125 14.828125 176.25 14.828125 173.964844 C 14.828125 171.679688 13 169.851562 10.710938 169.851562 Z M 10.710938 169.851562 " fill-opacity="1" fill-rule="nonzero"/><path fill="#d4def9" d="M 216.527344 17.90625 C 213.253906 17.90625 210.507812 15.238281 210.507812 11.886719 C 210.507812 8.535156 213.175781 5.867188 216.527344 5.867188 C 219.804688 5.867188 222.546875 8.535156 222.546875 11.886719 C 222.546875 15.238281 219.804688 17.90625 216.527344 17.90625 Z M 216.527344 7.847656 C 214.242188 7.847656 212.414062 9.675781 212.414062 11.964844 C 212.414062 14.25 214.242188 16.078125 216.527344 16.078125 C 218.816406 16.078125 220.644531 14.25 220.644531 11.964844 C 220.644531 9.675781 218.738281 7.847656 216.527344 7.847656 Z M 216.527344 7.847656 " fill-opacity="1" fill-rule="nonzero"/><path fill="#d4def9" d="M 25.039062 68.503906 C 24.503906 68.503906 24.046875 68.046875 24.046875 67.511719 L 24.046875 59.816406 C 24.046875 59.285156 24.503906 58.828125 25.039062 58.828125 C 25.570312 58.828125 26.027344 59.285156 26.027344 59.816406 L 26.027344 67.511719 C 25.953125 68.121094 25.496094 68.503906 25.039062 68.503906 Z M 25.039062 68.503906 " fill-opacity="1" fill-rule="nonzero"/><path fill="#d4def9" d="M 28.847656 64.695312 L 21.152344 64.695312 C 20.617188 64.695312 20.160156 64.238281 20.160156 63.703125 C 20.160156 63.171875 20.617188 62.710938 21.152344 62.710938 L 28.847656 62.710938 C 29.382812 62.710938 29.839844 63.171875 29.839844 63.703125 C 29.839844 64.238281 29.382812 64.695312 28.847656 64.695312 Z M 28.847656 64.695312 " fill-opacity="1" fill-rule="nonzero"/></svg>